<?xml version="1.0" standalone="no"?>
<!DOCTYPE svg PUBLIC "-//W3C//DTD SVG 20010904//EN"
 "http://www.w3.org/TR/2001/REC-SVG-20010904/DTD/svg10.dtd">
<svg version="1.0" xmlns="http://www.w3.org/2000/svg"
 width="200.000000pt" height="200.000000pt" viewBox="0 0 200.000000 200.000000"
 preserveAspectRatio="xMidYMid meet">
<metadata>
Created by potrace 1.11, written by Peter Selinger 2001-2013
</metadata>
<g transform="translate(0.000000,200.000000) scale(0.100000,-0.100000)"
fill="#000000" stroke="none">
<path d="M497 1339 c-20 -11 -56 -22 -79 -25 -23 -4 -48 -13 -56 -20 -16 -17
-8 -18 20 -3 15 8 19 8 14 0 -4 -6 -2 -11 4 -11 6 0 8 -4 5 -10 -3 -5 -11 -10
-16 -10 -6 0 -7 5 -3 11 4 8 0 8 -15 0 -25 -14 -28 -26 -5 -17 12 5 15 2 10
-11 -6 -16 -6 -16 12 0 24 22 36 22 28 0 -4 -10 8 -1 26 20 28 32 42 40 80 44
44 5 47 4 62 -25 15 -29 15 -30 -17 -55 -17 -14 -48 -40 -68 -59 -19 -19 -56
-45 -82 -57 -26 -13 -47 -28 -48 -34 -3 -46 -7 -61 -18 -65 -6 -2 -31 -30 -56
-61 -24 -32 -57 -64 -73 -70 -17 -7 -46 -37 -67 -67 -22 -32 -45 -54 -56 -54
-25 0 -33 -18 -30 -63 4 -50 22 -92 41 -92 12 0 14 11 12 50 -3 48 -2 51 43
90 26 22 59 52 73 66 15 14 48 37 73 52 25 15 65 45 90 67 24 22 47 40 51 40
4 0 27 -12 51 -28 l43 -27 -26 -21 c-25 -21 -107 -54 -135 -54 -8 0 -15 -7
-15 -16 0 -14 54 -91 75 -106 18 -13 24 3 11 34 -21 50 -11 66 51 78 30 7 57
10 59 7 3 -3 -15 -43 -40 -90 l-46 -86 557 5 c534 6 558 7 571 25 10 15 25 19
66 19 l53 0 75 143 c149 280 188 355 188 360 0 3 -114 3 -252 2 -139 -2 -389
-4 -555 -5 -293 -1 -303 -2 -314 -21 -20 -38 -21 -11 -1 30 11 23 15 38 9 34
-7 -4 -8 0 -4 11 4 9 3 15 -2 11 -5 -3 -12 1 -15 7 -3 7 -4 4 -3 -7 1 -11 7
-24 12 -28 6 -5 4 -7 -5 -4 -8 2 -15 9 -15 14 0 27 -15 23 -16 -3 0 -26 -1
-27 -10 -9 -6 14 -7 6 -3 -27 l5 -48 -35 0 c-39 0 -45 10 -20 31 8 7 24 29 34
49 l19 37 -29 28 c-34 32 -63 28 -89 -16 l-18 -29 -29 31 c-33 35 -75 59 -101
59 -10 -1 -35 -10 -56 -21z m185 -294 c-37 -75 -62 -105 -62 -75 0 6 -19 29
-42 52 -29 27 -39 43 -30 46 8 2 46 21 85 41 40 20 76 33 82 29 6 -5 -7 -42
-33 -93z"/>
</g>
</svg>
